<?xml version="1.0" encoding="UTF-8" standalone="no"?>
<svg width="256px" height="256px" viewBox="0 0 256 256" version="1.1" xmlns="http://www.w3.org/2000/svg" xmlns:xlink="http://www.w3.org/1999/xlink">
    <!-- Generator: Sketch 41.2 (35397) - http://www.bohemiancoding.com/sketch -->
    <title>logo-mask</title>
    <desc>Created with Sketch.</desc>
    <defs>
        <linearGradient x1="0%" y1="0%" x2="0%" y2="100%" id="linearGradient-1">
            <stop stop-color="#FFFFFF" offset="0%"></stop>
            <stop stop-color="#FFFFFF" offset="100%"></stop>
        </linearGradient>
        <path d="M0,34.992 C0,15.666 15.677,0 34.992,0 L221.008,0 C240.334,0 256,15.677 256,34.992 L256,221.008 C256,240.334 240.323,256 221.008,256 L34.992,256 C15.666,256 0,240.323 0,221.008 L0,34.992 Z M68,160 C85.673,160 100,145.673 100,128 C100,110.327 85.673,96 68,96 C50.327,96 36,110.327 36,128 C36,145.673 50.327,160 68,160 Z M188,160 C205.673,160 220,145.673 220,128 C220,110.327 205.673,96 188,96 C170.327,96 156,110.327 156,128 C156,145.673 170.327,160 188,160 Z" id="path-2"></path>
        <rect id="path-4" x="0" y="0" width="256" height="256" rx="35"></rect>
    </defs>
    <g id="Page-1" stroke="none" stroke-width="1" fill="none" fill-rule="evenodd">
        <g id="logo-mask">
            <g id="Group">
                <g>
                    <g>
                        <mask id="mask-3" fill="white">
                            <use xlink:href="#path-2"></use>
                        </mask>
                        <use id="Mask" fill="url(#linearGradient-1)" xlink:href="#path-2"></use>
                        <g mask="url(#mask-3)">
                            <g id="a-link" fill="#000000">
                                <rect id="a" x="0" y="0" width="256" height="256" rx="35"></rect>
                            </g>
                            <g id="Clipped">
                                <mask id="mask-5" fill="white">
                                    <use xlink:href="#path-4"></use>
                                </mask>
                                <g id="a"></g>
                                <g id="a-link" mask="url(#mask-5)" stroke="#FFFFFF" stroke-opacity="0.3" stroke-width="20">
                                    <rect id="a" x="0" y="0" width="256" height="256" rx="35"></rect>
                                </g>
                            </g>
                        </g>
                    </g>
                </g>
            </g>
        </g>
    </g>
</svg>